<svg width="15" height="15" viewBox="0 0 15 15" fill="none" xmlns="http://www.w3.org/2000/svg">
<path d="M5 2.85714C5.55228 2.85714 6 2.4414 6 1.92857C6 1.41574 5.55228 1 5 1C4.44772 1 4 1.41574 4 1.92857C4 2.4414 4.44772 2.85714 5 2.85714ZM5 8.42857C5.55228 8.42857 6 8.01283 6 7.5C6 6.98717 5.55228 6.57143 5 6.57143C4.44772 6.57143 4 6.98717 4 7.5C4 8.01283 4.44772 8.42857 5 8.42857ZM6 13.0714C6 13.5842 5.55228 14 5 14C4.44772 14 4 13.5842 4 13.0714C4 12.5587 4.44772 12.1429 5 12.1429C5.55228 12.1429 6 12.5587 6 13.0714ZM11 2.85714C11.5523 2.85714 12 2.4414 12 1.92857C12 1.41574 11.5523 1 11 1C10.4477 1 10 1.41574 10 1.92857C10 2.4414 10.4477 2.85714 11 2.85714ZM12 7.5C12 8.01283 11.5523 8.42857 11 8.42857C10.4477 8.42857 10 8.01283 10 7.5C10 6.98717 10.4477 6.57143 11 6.57143C11.5523 6.57143 12 6.98717 12 7.5ZM11 14C11.5523 14 12 13.5842 12 13.0714C12 12.5587 11.5523 12.1429 11 12.1429C10.4477 12.1429 10 12.5587 10 13.0714C10 13.5842 10.4477 14 11 14Z" fill="currentColor"/>
</svg>
